<svg width="40" height="40" viewBox="0 0 40 40" fill="none" xmlns="http://www.w3.org/2000/svg">
<path opacity="0.4" d="M36.1 17.4L34.4666 24.3666C33.0666 30.3833 30.3 32.8166 25.1 32.3166C24.2666 32.25 23.3666 32.1 22.4 31.8666L19.6 31.2C12.65 29.55 10.5 26.1166 12.1333 19.15L13.7666 12.1666C14.1 10.75 14.5 9.51664 15 8.49997C16.95 4.46664 20.2666 3.38331 25.8333 4.69997L28.6166 5.34997C35.6 6.98331 37.7333 10.4333 36.1 17.4Z" fill="white"/>
<path d="M25.1001 32.3167C24.0667 33.0167 22.7667 33.6 21.1834 34.1167L18.5501 34.9833C11.9334 37.1167 8.45008 35.3333 6.30008 28.7167L4.16675 22.1333C2.03341 15.5167 3.80008 12.0167 10.4167 9.88333L13.0501 9.01667C13.7334 8.8 14.3834 8.61667 15.0001 8.5C14.5001 9.51667 14.1001 10.75 13.7667 12.1667L12.1334 19.15C10.5001 26.1167 12.6501 29.55 19.6001 31.2L22.4001 31.8667C23.3667 32.1 24.2667 32.25 25.1001 32.3167Z" fill="white"/>
<path d="M29.1498 17.5167C29.0498 17.5167 28.9498 17.5 28.8331 17.4833L20.7498 15.4333C20.0831 15.2667 19.6831 14.5833 19.8498 13.9167C20.0165 13.25 20.6998 12.85 21.3665 13.0167L29.4498 15.0667C30.1165 15.2333 30.5165 15.9167 30.3498 16.5833C30.2165 17.1333 29.6998 17.5167 29.1498 17.5167Z" fill="white"/>
<path d="M24.2666 23.1499C24.1666 23.1499 24.0666 23.1333 23.9499 23.1166L19.0999 21.8833C18.4332 21.7166 18.0332 21.0333 18.1999 20.3666C18.3666 19.6999 19.0499 19.2999 19.7166 19.4666L24.5666 20.6999C25.2332 20.8666 25.6332 21.5499 25.4666 22.2166C25.3332 22.7833 24.8332 23.1499 24.2666 23.1499Z" fill="white"/>
</svg>
