<svg width="29" height="29" viewBox="0 0 29 29" fill="none" xmlns="http://www.w3.org/2000/svg">
<g clip-path="url(#clip0_30_1647)">
<path opacity="0.4" d="M19.5628 2.41663H9.43692C5.03859 2.41663 2.4165 5.03871 2.4165 9.43704V19.5508C2.4165 23.9612 5.03859 26.5833 9.43692 26.5833H19.5507C23.949 26.5833 26.5711 23.9612 26.5711 19.5629V9.43704C26.5832 5.03871 23.9611 2.41663 19.5628 2.41663Z" fill="#5B5B6D"/>
<path d="M15.7809 14.5001L18.5601 11.7209C18.9105 11.3705 18.9105 10.7905 18.5601 10.4401C18.2096 10.0896 17.6296 10.0896 17.2792 10.4401L14.5001 13.2192L11.7209 10.4401C11.3705 10.0896 10.7905 10.0896 10.4401 10.4401C10.0896 10.7905 10.0896 11.3705 10.4401 11.7209L13.2192 14.5001L10.4401 17.2792C10.0896 17.6296 10.0896 18.2096 10.4401 18.5601C10.6213 18.7413 10.8509 18.8259 11.0805 18.8259C11.3101 18.8259 11.5396 18.7413 11.7209 18.5601L14.5001 15.7809L17.2792 18.5601C17.4605 18.7413 17.6901 18.8259 17.9196 18.8259C18.1492 18.8259 18.3788 18.7413 18.5601 18.5601C18.9105 18.2096 18.9105 17.6296 18.5601 17.2792L15.7809 14.5001Z" fill="#5B5B6D"/>
</g>
<defs>
<clipPath id="clip0_30_1647">
<rect width="29" height="29" fill="white"/>
</clipPath>
</defs>
</svg>
