<svg width="21" height="21" viewBox="0 0 21 21" fill="none" xmlns="http://www.w3.org/2000/svg">
<path opacity="0.4" d="M9.40627 2.14378C10.01 1.62753 10.9988 1.62753 11.6113 2.14378L12.9938 3.33378C13.2563 3.56128 13.7463 3.74503 14.0963 3.74503H15.5838C16.5113 3.74503 17.2725 4.50628 17.2725 5.43378V6.92128C17.2725 7.26253 17.4563 7.76128 17.6838 8.02378L18.8738 9.40628C19.39 10.01 19.39 10.9988 18.8738 11.6113L17.6838 12.9938C17.4563 13.2563 17.2725 13.7463 17.2725 14.0963V15.5838C17.2725 16.5113 16.5113 17.2725 15.5838 17.2725H14.0963C13.755 17.2725 13.2563 17.4563 12.9938 17.6838L11.6113 18.8738C11.0075 19.39 10.0188 19.39 9.40627 18.8738L8.02377 17.6838C7.76127 17.4563 7.27127 17.2725 6.92127 17.2725H5.40752C4.48002 17.2725 3.71877 16.5113 3.71877 15.5838V14.0875C3.71877 13.7463 3.53502 13.2563 3.31627 12.9938L2.13502 11.6025C1.62752 10.9988 1.62752 10.0188 2.13502 9.41503L3.31627 8.02378C3.53502 7.76128 3.71877 7.27128 3.71877 6.93003V5.42503C3.71877 4.49753 4.48002 3.73628 5.40752 3.73628H6.92127C7.26252 3.73628 7.76127 3.55253 8.02377 3.32503L9.40627 2.14378Z" fill="#1E8E29"/>
<path d="M9.44124 13.2737C9.26624 13.2737 9.09999 13.2037 8.97749 13.0812L6.85999 10.9637C6.60624 10.71 6.60624 10.29 6.85999 10.0362C7.11374 9.78249 7.53374 9.78249 7.78749 10.0362L9.44124 11.69L13.2037 7.9275C13.4575 7.67375 13.8775 7.67375 14.1312 7.9275C14.385 8.18125 14.385 8.60124 14.1312 8.85499L9.90499 13.0812C9.78249 13.2037 9.61624 13.2737 9.44124 13.2737Z" fill="#1E8E29"/>
</svg>
