<svg width="35" height="35" viewBox="0 0 35 35" fill="none" xmlns="http://www.w3.org/2000/svg">
<path d="M25.6958 15.6769C25.0687 15.6769 24.5729 15.1665 24.5729 14.554C24.5729 14.0144 24.0333 12.8915 23.1291 11.9144C22.2395 10.9665 21.2625 10.4123 20.4458 10.4123C19.8187 10.4123 19.3229 9.90192 19.3229 9.28942C19.3229 8.67692 19.8333 8.1665 20.4458 8.1665C21.9041 8.1665 23.4354 8.954 24.777 10.3686C26.0312 11.6957 26.8333 13.3436 26.8333 14.5394C26.8333 15.1665 26.3229 15.6769 25.6958 15.6769Z" fill="white"/>
<path d="M30.9604 15.6769C30.3334 15.6769 29.8375 15.1665 29.8375 14.554C29.8375 9.37692 25.6229 5.17692 20.4604 5.17692C19.8334 5.17692 19.3375 4.6665 19.3375 4.054C19.3375 3.4415 19.8334 2.9165 20.4459 2.9165C26.8625 2.9165 32.0834 8.13734 32.0834 14.554C32.0834 15.1665 31.5729 15.6769 30.9604 15.6769Z" fill="white"/>
<path opacity="0.5" d="M17.1937 20.7228L12.425 25.4915C11.9 25.0248 11.3895 24.5436 10.8937 24.0478C9.39163 22.5311 8.03538 20.9415 6.82496 19.279C5.62913 17.6165 4.66663 15.954 3.96663 14.3061C3.26663 12.6436 2.91663 11.054 2.91663 9.53734C2.91663 8.54567 3.09163 7.59775 3.44163 6.72275C3.79163 5.83317 4.34579 5.0165 5.11871 4.28734C6.05204 3.36859 7.07288 2.9165 8.15204 2.9165C8.56038 2.9165 8.96871 3.004 9.33329 3.179C9.71246 3.354 10.0479 3.6165 10.3104 3.99567L13.6937 8.76442C13.9562 9.129 14.1458 9.46442 14.277 9.78525C14.4083 10.0915 14.4812 10.3978 14.4812 10.6748C14.4812 11.0248 14.3791 11.3748 14.175 11.7103C13.9854 12.0457 13.7083 12.3957 13.3583 12.7457L12.25 13.8978C12.0895 14.0582 12.0166 14.2478 12.0166 14.4811C12.0166 14.5978 12.0312 14.6998 12.0604 14.8165C12.1041 14.9332 12.1479 15.0207 12.177 15.1082C12.4395 15.5894 12.8916 16.2165 13.5333 16.9748C14.1895 17.7332 14.8895 18.5061 15.6479 19.279C16.1729 19.7894 16.6833 20.2853 17.1937 20.7228Z" fill="white"/>
<path d="M32.0396 26.7313C32.0396 27.1397 31.9667 27.5626 31.8208 27.9709C31.7771 28.0876 31.7333 28.2043 31.675 28.3209C31.4271 28.8459 31.1062 29.3418 30.6833 29.8084C29.9687 30.5959 29.1812 31.1647 28.2917 31.5293C28.2771 31.5293 28.2625 31.5438 28.2479 31.5438C27.3875 31.8938 26.4542 32.0834 25.4479 32.0834C23.9604 32.0834 22.3708 31.7334 20.6937 31.0188C19.0167 30.3043 17.3396 29.3418 15.6771 28.1313C15.1083 27.7084 14.5396 27.2855 14 26.8334L18.7687 22.0647C19.1771 22.3709 19.5417 22.6043 19.8479 22.7647C19.9208 22.7938 20.0083 22.8376 20.1104 22.8813C20.2271 22.9251 20.3437 22.9397 20.475 22.9397C20.7229 22.9397 20.9125 22.8522 21.0729 22.6918L22.1812 21.598C22.5458 21.2334 22.8958 20.9563 23.2312 20.7813C23.5667 20.5772 23.9021 20.4751 24.2667 20.4751C24.5437 20.4751 24.8354 20.5334 25.1562 20.6647C25.4771 20.7959 25.8125 20.9855 26.1771 21.2334L31.0042 24.6605C31.3833 24.923 31.6458 25.2293 31.8062 25.5938C31.9521 25.9584 32.0396 26.323 32.0396 26.7313Z" fill="white"/>
</svg>
