<svg width="35" height="35" viewBox="0 0 35 35" fill="none" xmlns="http://www.w3.org/2000/svg">
<path opacity="0.5" d="M24.7916 29.8957H10.2083C5.83329 29.8957 2.91663 27.7082 2.91663 22.604V12.3957C2.91663 7.2915 5.83329 5.104 10.2083 5.104H24.7916C29.1666 5.104 32.0833 7.2915 32.0833 12.3957V22.604C32.0833 27.7082 29.1666 29.8957 24.7916 29.8957Z" fill="white"/>
<path d="M17.5 18.7689C16.275 18.7689 15.0354 18.3898 14.0875 17.6169L9.52288 13.971C9.05621 13.5919 8.96872 12.9064 9.34788 12.4398C9.72705 11.9731 10.4125 11.8856 10.8791 12.2648L15.4437 15.9106C16.552 16.8002 18.4333 16.8002 19.5416 15.9106L24.1062 12.2648C24.5729 11.8856 25.2729 11.9585 25.6375 12.4398C26.0166 12.9064 25.9437 13.6065 25.4625 13.971L20.8979 17.6169C19.9645 18.3898 18.725 18.7689 17.5 18.7689Z" fill="white"/>
</svg>
