<svg width="35" height="35" viewBox="0 0 35 35" fill="none" xmlns="http://www.w3.org/2000/svg">
<path opacity="0.5" d="M30.0709 12.3231C28.5396 5.58558 22.6625 2.55225 17.5 2.55225C17.5 2.55225 17.5 2.55225 17.4854 2.55225C12.3375 2.55225 6.44585 5.571 4.9146 12.3085C3.20835 19.8335 7.81668 26.2064 11.9875 30.2168C13.5334 31.7043 15.5167 32.4481 17.5 32.4481C19.4833 32.4481 21.4667 31.7043 22.9979 30.2168C27.1688 26.2064 31.7771 19.8481 30.0709 12.3231Z" fill="#FBFBFB"/>
<path d="M17.5 19.6294C20.0371 19.6294 22.0937 17.5727 22.0937 15.0356C22.0937 12.4986 20.0371 10.4419 17.5 10.4419C14.9629 10.4419 12.9062 12.4986 12.9062 15.0356C12.9062 17.5727 14.9629 19.6294 17.5 19.6294Z" fill="#FBFBFB"/>
</svg>
