<svg width="40" height="40" viewBox="0 0 40 40" fill="none" xmlns="http://www.w3.org/2000/svg">
<path opacity="0.45" d="M36.6667 13.0168V26.9668C36.6667 33.0335 33.05 36.6502 26.9834 36.6502H13.0167C6.95004 36.6668 3.33337 33.0502 3.33337 26.9835V13.0168C3.33337 6.95016 6.95004 3.3335 13.0167 3.3335H26.9667C33.05 3.3335 36.6667 6.95016 36.6667 13.0168Z" fill="white"/>
<path d="M20.8833 9.11667L28.0333 16.2667C28.5166 16.75 28.5166 17.55 28.0333 18.0333C27.55 18.5167 26.75 18.5167 26.2666 18.0333L21.25 13.0167V30C21.25 30.6833 20.6833 31.25 20 31.25C19.3166 31.25 18.75 30.6833 18.75 30V13.0167L13.7333 18.0333C13.25 18.5167 12.45 18.5167 11.9666 18.0333C11.7166 17.7833 11.6 17.4667 11.6 17.15C11.6 16.8333 11.7333 16.5 11.9666 16.2667L19.1166 9.11667C19.35 8.88333 19.6666 8.75 20 8.75C20.3333 8.75 20.65 8.88333 20.8833 9.11667Z" fill="white"/>
</svg>
