<svg width="25" height="25" viewBox="0 0 25 25" fill="none" xmlns="http://www.w3.org/2000/svg">
<path d="M18.3542 11.1976C17.9063 11.1976 17.5521 10.833 17.5521 10.3955C17.5521 10.0101 17.1667 9.20801 16.5209 8.51009C15.8855 7.83301 15.1875 7.43717 14.6042 7.43717C14.1563 7.43717 13.8021 7.07259 13.8021 6.63509C13.8021 6.19759 14.1667 5.83301 14.6042 5.83301C15.6459 5.83301 16.7396 6.39551 17.698 7.40592C18.5938 8.35384 19.1667 9.53093 19.1667 10.3851C19.1667 10.833 18.8021 11.1976 18.3542 11.1976Z" fill="white"/>
<path d="M22.1146 11.1976C21.6667 11.1976 21.3125 10.833 21.3125 10.3955C21.3125 6.69759 18.3021 3.69759 14.6146 3.69759C14.1667 3.69759 13.8125 3.33301 13.8125 2.89551C13.8125 2.45801 14.1667 2.08301 14.6042 2.08301C19.1875 2.08301 22.9167 5.81217 22.9167 10.3955C22.9167 10.833 22.5521 11.1976 22.1146 11.1976Z" fill="white"/>
<path opacity="0.4" d="M12.2813 14.8018L8.87504 18.208C8.50004 17.8747 8.13546 17.5309 7.78129 17.1768C6.70837 16.0934 5.73962 14.958 4.87504 13.7705C4.02087 12.583 3.33337 11.3955 2.83337 10.2184C2.33337 9.03092 2.08337 7.89551 2.08337 6.81217C2.08337 6.10384 2.20837 5.42676 2.45837 4.80176C2.70837 4.16634 3.10421 3.58301 3.65629 3.06217C4.32296 2.40592 5.05212 2.08301 5.82296 2.08301C6.11462 2.08301 6.40629 2.14551 6.66671 2.27051C6.93754 2.39551 7.17712 2.58301 7.36462 2.85384L9.78129 6.26009C9.96879 6.52051 10.1042 6.76009 10.198 6.98926C10.2917 7.20801 10.3438 7.42676 10.3438 7.62467C10.3438 7.87467 10.2709 8.12467 10.125 8.36426C9.98962 8.60384 9.79171 8.85384 9.54171 9.10384L8.75004 9.92676C8.63546 10.0413 8.58337 10.1768 8.58337 10.3434C8.58337 10.4268 8.59379 10.4997 8.61462 10.583C8.64588 10.6663 8.67712 10.7288 8.69796 10.7913C8.88546 11.1351 9.20837 11.583 9.66671 12.1247C10.1355 12.6663 10.6355 13.2184 11.1771 13.7705C11.5521 14.1351 11.9167 14.4893 12.2813 14.8018Z" fill="white"/>
<path d="M22.8854 19.0937C22.8854 19.3854 22.8333 19.6875 22.7292 19.9792C22.6979 20.0625 22.6667 20.1458 22.625 20.2292C22.4479 20.6042 22.2188 20.9583 21.9167 21.2917C21.4063 21.8542 20.8438 22.2604 20.2083 22.5208C20.1979 22.5208 20.1875 22.5312 20.1771 22.5312C19.5625 22.7812 18.8958 22.9167 18.1771 22.9167C17.1146 22.9167 15.9792 22.6667 14.7812 22.1563C13.5833 21.6458 12.3854 20.9583 11.1979 20.0938C10.7917 19.7917 10.3854 19.4896 10 19.1667L13.4062 15.7604C13.6979 15.9792 13.9583 16.1458 14.1771 16.2604C14.2292 16.2812 14.2917 16.3125 14.3646 16.3437C14.4479 16.375 14.5312 16.3854 14.625 16.3854C14.8021 16.3854 14.9375 16.3229 15.0521 16.2083L15.8438 15.4271C16.1042 15.1667 16.3542 14.9688 16.5938 14.8438C16.8333 14.6979 17.0729 14.625 17.3333 14.625C17.5312 14.625 17.7396 14.6667 17.9688 14.7604C18.1979 14.8542 18.4375 14.9896 18.6979 15.1667L22.1458 17.6146C22.4167 17.8021 22.6042 18.0208 22.7188 18.2812C22.8229 18.5417 22.8854 18.8021 22.8854 19.0937Z" fill="white"/>
</svg>
