<svg width="21" height="21" viewBox="0 0 21 21" fill="none" xmlns="http://www.w3.org/2000/svg">
<path opacity="0.4" d="M9.62496 17.5087C13.979 17.5087 17.5087 13.979 17.5087 9.62496C17.5087 5.27089 13.979 1.74121 9.62496 1.74121C5.27089 1.74121 1.74121 5.27089 1.74121 9.62496C1.74121 13.979 5.27089 17.5087 9.62496 17.5087Z" fill="#262630"/>
<path d="M12.25 8.96875H7C6.64125 8.96875 6.34375 8.67125 6.34375 8.3125C6.34375 7.95375 6.64125 7.65625 7 7.65625H12.25C12.6087 7.65625 12.9062 7.95375 12.9062 8.3125C12.9062 8.67125 12.6087 8.96875 12.25 8.96875Z" fill="#262630"/>
<path d="M9.625 11.5938H7C6.64125 11.5938 6.34375 11.2962 6.34375 10.9375C6.34375 10.5788 6.64125 10.2812 7 10.2812H9.625C9.98375 10.2812 10.2812 10.5788 10.2812 10.9375C10.2812 11.2962 9.98375 11.5938 9.625 11.5938Z" fill="#262630"/>
<path d="M19.2411 16.5813C18.9523 16.0475 18.3398 15.75 17.5173 15.75C16.8961 15.75 16.3623 16.0038 16.0473 16.4413C15.7323 16.8788 15.6623 17.465 15.8548 18.0513C16.2311 19.1888 16.8873 19.4425 17.2461 19.4863C17.2986 19.495 17.3511 19.495 17.4123 19.495C17.7973 19.495 18.3923 19.3288 18.9698 18.4625C19.4336 17.7888 19.5211 17.115 19.2411 16.5813Z" fill="#262630"/>
</svg>
