<svg width="25" height="25" viewBox="0 0 25 25" fill="none" xmlns="http://www.w3.org/2000/svg">
<path opacity="0.4" d="M5.97916 16.6663C6.09375 16.1559 5.88541 15.4268 5.52083 15.0622L2.98958 12.5309C2.19791 11.7393 1.88541 10.8955 2.11458 10.1663C2.35416 9.43717 3.09375 8.93717 4.19791 8.74967L7.44791 8.20801C7.91666 8.12467 8.48958 7.70801 8.70833 7.28092L10.5 3.68717C11.0208 2.65592 11.7292 2.08301 12.5 2.08301C13.2708 2.08301 13.9792 2.65592 14.5 3.68717L16.2917 7.28092C16.4271 7.55176 16.7083 7.81217 17.0104 7.98926L5.79166 19.208C5.64583 19.3538 5.39583 19.2184 5.4375 19.0101L5.97916 16.6663Z" fill="white"/>
<path d="M19.4791 15.0625C19.1041 15.4375 18.8958 16.1562 19.0208 16.6666L19.7395 19.8021C20.0416 21.1041 19.8541 22.0833 19.2083 22.5521C18.9479 22.7396 18.6354 22.8333 18.2708 22.8333C17.7395 22.8333 17.1145 22.6354 16.427 22.2291L13.375 20.4166C12.8958 20.1354 12.1041 20.1354 11.625 20.4166L8.57288 22.2291C7.41663 22.9062 6.42704 23.0208 5.79163 22.5521C5.55204 22.375 5.37496 22.1354 5.26038 21.8229L17.927 9.15622C18.4062 8.67706 19.0833 8.45831 19.7395 8.57289L20.7916 8.74997C21.8958 8.93747 22.6354 9.43747 22.875 10.1666C23.1041 10.8958 22.7916 11.7396 22 12.5312L19.4791 15.0625Z" fill="white"/>
</svg>
