<svg width="137" height="61" viewBox="0 0 137 61" fill="none" xmlns="http://www.w3.org/2000/svg">
<path d="M16.7186 46.9821C16.641 46.9881 16.5604 46.994 16.4769 47H10.6828L9.27685 46.991C6.75148 46.9612 5.44999 45.4806 5.37238 42.5493V40.5433H7.37835V42.6836C7.43208 44.4209 8.47984 45.2478 10.5216 45.1642H15.5634C16.25 45.1821 16.6082 44.8925 16.638 44.2955V40.5433H18.7515V44.7522C18.7515 44.8955 18.7455 45.0328 18.7336 45.1642H20.0052V47H16.7186V46.9821ZM9.72462 47.8687H11.5157V49.3463H9.73357L9.72462 47.8687ZM12.5903 47.8687H14.3903V49.3463H12.6082L12.5903 47.8687ZM11.2112 49.8478H13.0022V51.3164H11.2201L11.2112 49.8478ZM19.9864 48.003H21.7775V49.4716H19.9864V48.003ZM22.8879 40.5433H24.9924V44.7522C24.9924 45.6896 24.6133 46.3463 23.8551 46.7224C23.5386 46.8776 23.1595 46.9701 22.7178 47H19.5207V45.1642H21.8043C22.4909 45.1821 22.8491 44.8925 22.8789 44.2955V43.3015L22.8879 40.5433ZM22.9775 48.003H24.7685V49.4716H22.9775V48.003ZM30.2973 47C30.154 47.6567 29.8077 48.2358 29.2585 48.7373C28.5301 49.3284 27.4854 49.594 26.1242 49.5343L26.1421 48.1194C26.2376 48.1313 26.3272 48.1373 26.4107 48.1373C26.9779 48.1373 27.4615 47.9343 27.8615 47.5284C28.148 47.2119 28.2913 46.7343 28.2913 46.0955V40.5522H30.36V45.1642H31.9361V47H30.2973ZM32.4145 38.2239H34.1966V39.6925H32.4055L32.4145 38.2239ZM34.9846 40.5433H37.0891V44.7522C37.0891 45.6896 36.71 46.3463 35.9518 46.7224C35.6354 46.8776 35.2563 46.9701 34.8145 47H31.6175V45.1642H33.9011C34.5876 45.1821 34.9458 44.8925 34.9757 44.2955V43.3015L34.9846 40.5433ZM35.3966 38.2239H37.1876V39.6925H35.3966V38.2239ZM53.0327 48.2896C51.9581 49.8358 50.2477 50.6388 47.9014 50.6985C45.8835 50.5731 44.3432 49.8925 43.2805 48.6567C42.3491 47.5403 41.8387 46.1134 41.7491 44.3761V40.5164H43.7999V43.4358C43.7999 44.5582 43.9581 45.4955 44.2745 46.2478C45.0805 47.7821 46.3372 48.5672 48.0447 48.603C49.1253 48.5433 49.9462 48.2896 50.5074 47.8418C50.9074 47.5672 51.2805 47.1284 51.6268 46.5254C51.9253 45.7791 52.0745 44.6418 52.0745 43.1134V40.5164H54.1521V45.1642C53.985 46.603 53.6118 47.6448 53.0327 48.2896ZM47.2387 38.2239H49.0297V39.6925H47.2387V38.2239ZM55.3241 36.8537L57.5987 36.8448V46.991L55.2972 47.009L55.3241 36.8537ZM62.1767 41.8239C61.9439 41.8239 61.6752 41.9224 61.3707 42.1194C61.1737 42.2507 61.0066 42.4418 60.8692 42.6925C60.72 42.9791 60.6454 43.2925 60.6454 43.6328C60.6454 43.9313 60.7051 44.2299 60.8245 44.5284C61.0812 45.1433 61.5767 45.4507 62.311 45.4507C62.5379 45.4507 62.726 45.4269 62.8752 45.3791C63.0543 45.3194 63.2484 45.1612 63.4573 44.9045C63.7439 44.5522 63.8872 44.1463 63.8872 43.6866C63.8872 43.4955 63.8603 43.2955 63.8066 43.0866C63.5976 42.2448 63.123 41.8149 62.3827 41.797C62.317 41.797 62.2484 41.806 62.1767 41.8239ZM63.4304 47.5284C63.6155 47.3194 63.7409 47.0418 63.8066 46.6955C63.2872 46.9045 62.7081 47.009 62.0692 47.009C60.8991 47.009 59.9827 46.6269 59.32 45.8627C58.9081 45.391 58.6722 44.7284 58.6125 43.8746C58.6125 43.4806 58.6842 43.0746 58.8275 42.6567C58.9827 42.209 59.2006 41.8239 59.4812 41.5015C60.0782 40.797 61.0036 40.4269 62.2573 40.391H62.3648C63.4155 40.391 64.3558 40.806 65.1857 41.6358C65.6454 42.1672 65.9021 42.9134 65.9558 43.8746C65.9558 43.9403 65.9498 44.003 65.9379 44.0627L65.92 45.8179C65.9319 45.9552 65.9379 46.0866 65.9379 46.2119C65.9379 47.209 65.5678 48.0507 64.8275 48.7373C64.1588 49.2687 63.2304 49.5343 62.0424 49.5343H61.6842L61.711 48.1194C61.8006 48.1313 61.8901 48.1373 61.9797 48.1373C62.5409 48.1373 63.0245 47.9343 63.4304 47.5284ZM68.8454 40.5522H70.9051V45.8269C70.917 45.9642 70.923 46.0985 70.923 46.2299C70.923 47.2149 70.5529 48.0507 69.8126 48.7373C69.1439 49.2687 68.2155 49.5343 67.0275 49.5343H66.6693L66.6961 48.1194C66.7857 48.1313 66.8752 48.1373 66.9648 48.1373C67.526 48.1373 68.0096 47.9343 68.4155 47.5284C68.7021 47.2119 68.8454 46.7343 68.8454 46.0955V40.5522ZM74.3656 40.5522H76.4342V45.8269C76.4462 45.9642 76.4522 46.0985 76.4522 46.2299C76.4522 47.2149 76.079 48.0507 75.3328 48.7373C74.6044 49.3284 73.5596 49.594 72.1984 49.5343L72.2163 48.1194C72.3119 48.1313 72.4014 48.1373 72.485 48.1373C73.0522 48.1373 73.5357 47.9343 73.9357 47.5284C74.2223 47.2119 74.3656 46.7343 74.3656 46.0955V40.5522ZM74.491 36.9164H76.2731V38.394H74.491V36.9164ZM93.6505 44.9403C93.5013 45.9254 93.1759 46.7343 92.6744 47.3672C91.5998 48.8119 89.8893 49.5642 87.543 49.6239C85.5251 49.4985 83.9848 48.8179 82.9221 47.5821C81.9908 46.4657 81.4804 45.0388 81.3908 43.3015V42.2358H83.4416V42.4687C83.4416 43.5194 83.5998 44.4209 83.9162 45.1731C84.7221 46.7075 85.9789 47.4925 87.6863 47.5284C88.7669 47.4687 89.5878 47.2149 90.149 46.7672C90.6923 46.4269 91.1072 45.8806 91.3938 45.1284H86.0923V43.203C86.0923 43.0597 86.1251 42.791 86.1908 42.397C86.2804 41.8776 86.3819 41.4955 86.4953 41.2507C86.7401 40.7433 87.0774 40.2806 87.5072 39.8627C87.8296 39.5284 88.3221 39.2328 88.9848 38.9761C89.8147 38.6597 90.6654 38.5224 91.5371 38.5642C91.7401 38.5642 91.943 38.5761 92.146 38.6V40.3015C91.961 40.2955 91.7819 40.2925 91.6087 40.2925C91.1192 40.2925 90.7013 40.3254 90.355 40.391C89.6087 40.5403 89.0027 40.9522 88.5371 41.6269C88.2923 42.0149 88.1699 42.4388 88.1699 42.8985C88.1699 43.0478 88.1848 43.1791 88.2147 43.2925H93.6505V44.9403ZM97.1286 40.5522H99.1883V45.8269C99.2002 45.9642 99.2062 46.0985 99.2062 46.2299C99.2062 47.2149 98.8361 48.0507 98.0958 48.7373C97.4271 49.2687 96.4987 49.5343 95.3107 49.5343H94.9525L94.9793 48.1194C95.0689 48.1313 95.1584 48.1373 95.248 48.1373C95.8092 48.1373 96.2928 47.9343 96.6987 47.5284C96.9853 47.2119 97.1286 46.7343 97.1286 46.0955V40.5522ZM100.517 36.8537L102.792 36.8448V46.991L100.491 47.009L100.517 36.8537ZM103.86 47V45.1642H109.618C109.648 45.0507 109.663 44.9164 109.663 44.7612C109.663 44.3075 109.54 43.8866 109.295 43.4985C108.83 42.8239 108.224 42.4119 107.478 42.2627C107.131 42.197 106.713 42.1642 106.224 42.1642C106.051 42.1642 105.872 42.1672 105.686 42.1731V40.5701C105.889 40.5522 106.092 40.5433 106.295 40.5433C107.203 40.5433 108.054 40.6776 108.848 40.9463C109.546 41.209 110.098 41.5284 110.504 41.9045C110.815 42.209 111.092 42.6149 111.337 43.1224C111.451 43.3672 111.552 43.7493 111.642 44.2687C111.707 44.6627 111.74 44.9313 111.74 45.0746V45.1642H113.97V47H103.86ZM115.199 46.9821C115.02 46.994 114.832 47 114.635 47H112.737V45.1552H113.426C113.569 45.1672 113.769 45.1612 114.026 45.1373C114.737 45.0657 115.14 44.6597 115.235 43.9194V36.8896H117.483V44.7433C117.483 44.8806 117.471 45.009 117.447 45.1284H119.426L119.453 46.9821H115.199ZM121.454 40.5433H123.872V44.0985C123.866 44.6657 123.744 45.0179 123.505 45.1552L125.412 45.1642V47H118.75V45.1552H120.057C120.917 45.2149 121.382 44.8478 121.454 44.0537V40.5433ZM120.2 38.1254H121.982V39.594H120.182L120.2 38.1254ZM123.173 38.1254H124.965V39.594H123.173V38.1254ZM136.624 47H124.848V45.1552H126.988C126.91 45.0657 126.839 44.9134 126.773 44.6985C126.695 44.4418 126.656 44.1582 126.656 43.8478C126.656 43.5791 126.686 43.3075 126.746 43.0328C126.889 42.4299 127.292 41.9134 127.955 41.4836C128.582 41.0716 129.245 40.8657 129.943 40.8657C130.749 40.8657 131.456 41.1164 132.065 41.6179C132.597 42.0537 132.949 42.591 133.122 43.2299C133.194 43.4985 133.23 43.7761 133.23 44.0627C133.23 44.5045 133.143 44.8597 132.97 45.1284H134.555C134.591 44.9194 134.609 44.7045 134.609 44.4836C134.609 43.6776 134.382 42.8358 133.928 41.9582C133.224 40.8657 132.268 40.2597 131.062 40.1403L131.036 38.2955C132.003 38.3672 132.925 38.6657 133.803 39.191C134.776 39.7701 135.486 40.5134 135.934 41.4209C136.448 42.5194 136.704 43.5701 136.704 44.5731C136.704 44.7881 136.695 44.9821 136.677 45.1552L136.624 47ZM129.845 42.4955C129.062 42.4836 128.639 42.9254 128.573 43.8209C128.639 44.7284 129.062 45.191 129.845 45.209C130.692 45.2269 131.146 44.7642 131.206 43.8209C131.146 42.9075 130.692 42.4657 129.845 42.4955Z" fill="#262630"/>
<path d="M0.997159 18V16.3572L7.52983 7.19105H0.984375V4.90909H11.0071V6.55185L4.46804 15.718H11.0199V18H0.997159ZM17.74 18H14.7741L19.2933 4.90909H22.8601L27.3728 18H24.4069L21.1278 7.90057H21.0255L17.74 18ZM17.5547 12.8544H24.5603V15.0149H17.5547V12.8544ZM31.2885 18V4.90909H36.4533C37.4419 4.90909 38.2856 5.08594 38.9845 5.43963C39.6876 5.78906 40.2224 6.28551 40.5889 6.92898C40.9597 7.56818 41.145 8.32031 41.145 9.18537C41.145 10.0547 40.9575 10.8026 40.5825 11.429C40.2075 12.0511 39.6642 12.5284 38.9526 12.8608C38.2452 13.1932 37.3886 13.3594 36.3829 13.3594H32.9249V11.1349H35.9355C36.4639 11.1349 36.9028 11.0625 37.2523 10.9176C37.6017 10.7727 37.8616 10.5554 38.0321 10.2656C38.2068 9.97585 38.2942 9.61577 38.2942 9.18537C38.2942 8.75071 38.2068 8.38423 38.0321 8.08594C37.8616 7.78764 37.5996 7.56179 37.2459 7.40838C36.8964 7.25071 36.4554 7.17188 35.9227 7.17188H34.0562V18H31.2885ZM38.3581 12.0426L41.6116 18H38.5562L35.373 12.0426H38.3581ZM47.4545 4.90909L50.6185 14.8551H50.74L53.9104 4.90909H56.9786L52.4658 18H48.8991L44.3799 4.90909H47.4545ZM61.4104 18H58.4445L62.9637 4.90909H66.5305L71.0432 18H68.0773L64.7982 7.90057H64.6959L61.4104 18ZM61.2251 12.8544H68.2307V15.0149H61.2251V12.8544ZM85.9084 4.90909V18H83.5178L77.8225 9.76065H77.7266V18H74.9589V4.90909H77.3879L83.0384 13.142H83.1535V4.90909H85.9084ZM90.0366 7.19105V4.90909H100.788V7.19105H96.7802V18H94.0444V7.19105H90.0366ZM104.899 18V4.90909H110.063C111.052 4.90909 111.896 5.08594 112.595 5.43963C113.298 5.78906 113.833 6.28551 114.199 6.92898C114.57 7.56818 114.755 8.32031 114.755 9.18537C114.755 10.0547 114.568 10.8026 114.193 11.429C113.818 12.0511 113.274 12.5284 112.563 12.8608C111.855 13.1932 110.999 13.3594 109.993 13.3594H106.535V11.1349H109.546C110.074 11.1349 110.513 11.0625 110.862 10.9176C111.212 10.7727 111.472 10.5554 111.642 10.2656C111.817 9.97585 111.904 9.61577 111.904 9.18537C111.904 8.75071 111.817 8.38423 111.642 8.08594C111.472 7.78764 111.21 7.56179 110.856 7.40838C110.507 7.25071 110.066 7.17188 109.533 7.17188H107.666V18H104.899ZM111.968 12.0426L115.222 18H112.166L108.983 12.0426H111.968ZM121.819 4.90909V18H119.051V4.90909H121.819ZM126.436 18V4.90909H131.601C132.594 4.90909 133.44 5.09872 134.138 5.47798C134.837 5.85298 135.37 6.375 135.736 7.04403C136.107 7.70881 136.293 8.47585 136.293 9.34517C136.293 10.2145 136.105 10.9815 135.73 11.6463C135.355 12.3111 134.812 12.8288 134.1 13.1996C133.393 13.5703 132.536 13.7557 131.531 13.7557H128.239V11.5376H131.083C131.616 11.5376 132.055 11.446 132.4 11.2628C132.749 11.0753 133.009 10.8175 133.18 10.4893C133.354 10.157 133.442 9.77557 133.442 9.34517C133.442 8.91051 133.354 8.53125 133.18 8.20739C133.009 7.87926 132.749 7.62571 132.4 7.44673C132.05 7.26349 131.607 7.17188 131.07 7.17188H129.204V18H126.436Z" fill="#262630"/>
</svg>
