<svg width="21" height="21" viewBox="0 0 21 21" fill="none" xmlns="http://www.w3.org/2000/svg">
<path opacity="0.4" d="M7.875 1.75C5.5825 1.75 3.71875 3.61375 3.71875 5.90625C3.71875 8.155 5.4775 9.975 7.77 10.0537C7.84 10.045 7.91 10.045 7.9625 10.0537C7.98 10.0537 7.98875 10.0537 8.00625 10.0537C8.015 10.0537 8.015 10.0537 8.02375 10.0537C10.2638 9.975 12.0225 8.155 12.0312 5.90625C12.0312 3.61375 10.1675 1.75 7.875 1.75Z" fill="#262630"/>
<path d="M12.3198 12.3813C9.87859 10.7538 5.89734 10.7538 3.43859 12.3813C2.32734 13.125 1.71484 14.1313 1.71484 15.2075C1.71484 16.2838 2.32734 17.2813 3.42984 18.0163C4.65484 18.8388 6.26484 19.25 7.87484 19.25C9.48484 19.25 11.0948 18.8388 12.3198 18.0163C13.4223 17.2725 14.0348 16.275 14.0348 15.19C14.0261 14.1138 13.4223 13.1163 12.3198 12.3813Z" fill="#262630"/>
<path opacity="0.4" d="M17.4912 6.42247C17.6312 8.11997 16.4237 9.60746 14.7524 9.80871C14.7437 9.80871 14.7437 9.80871 14.7349 9.80871H14.7087C14.6562 9.80871 14.6037 9.80871 14.5599 9.82621C13.7112 9.86996 12.9324 9.59871 12.3462 9.09996C13.2474 8.29496 13.7637 7.08746 13.6587 5.77496C13.5974 5.06621 13.3524 4.41872 12.9849 3.86747C13.3174 3.70122 13.7024 3.59622 14.0962 3.56122C15.8112 3.41247 17.3424 4.68997 17.4912 6.42247Z" fill="#262630"/>
<path d="M19.2412 14.5162C19.1712 15.365 18.6287 16.1 17.7187 16.5987C16.8437 17.08 15.7412 17.3075 14.6475 17.2812C15.2775 16.7125 15.645 16.0037 15.715 15.2512C15.8025 14.1662 15.2862 13.125 14.2537 12.2937C13.6675 11.83 12.985 11.4625 12.2412 11.1912C14.175 10.6312 16.6075 11.0075 18.1037 12.215C18.9087 12.8625 19.32 13.6762 19.2412 14.5162Z" fill="#262630"/>
</svg>
