<svg width="25" height="25" viewBox="0 0 25 25" fill="none" xmlns="http://www.w3.org/2000/svg">
<path opacity="0.4" d="M9.37504 2.08301C6.64587 2.08301 4.42712 4.30176 4.42712 7.03092C4.42712 9.70801 6.52087 11.8747 9.25004 11.9684C9.33337 11.958 9.41671 11.958 9.47921 11.9684C9.50004 11.9684 9.51046 11.9684 9.53129 11.9684C9.54171 11.9684 9.54171 11.9684 9.55212 11.9684C12.2188 11.8747 14.3125 9.70801 14.323 7.03092C14.323 4.30176 12.1042 2.08301 9.37504 2.08301Z" fill="white"/>
<path d="M14.6666 14.7393C11.7604 12.8018 7.02079 12.8018 4.09371 14.7393C2.77079 15.6247 2.04163 16.8226 2.04163 18.1038C2.04163 19.3851 2.77079 20.5726 4.08329 21.4476C5.54163 22.4268 7.45829 22.9163 9.37496 22.9163C11.2916 22.9163 13.2083 22.4268 14.6666 21.4476C15.9791 20.5622 16.7083 19.3747 16.7083 18.083C16.6979 16.8018 15.9791 15.6143 14.6666 14.7393Z" fill="white"/>
<path opacity="0.4" d="M20.8229 7.64586C20.9895 9.66669 19.552 11.4375 17.5625 11.6771C17.552 11.6771 17.552 11.6771 17.5416 11.6771H17.5104C17.4479 11.6771 17.3854 11.6771 17.3333 11.6979C16.3229 11.75 15.3958 11.4271 14.6979 10.8334C15.7708 9.87502 16.3854 8.43752 16.2604 6.87502C16.1875 6.03127 15.8958 5.26044 15.4583 4.60419C15.8541 4.40627 16.3125 4.28127 16.7812 4.23961C18.8229 4.06252 20.6458 5.58336 20.8229 7.64586Z" fill="white"/>
<path d="M22.9062 17.2813C22.8229 18.2918 22.177 19.1668 21.0937 19.7605C20.052 20.3334 18.7395 20.6043 17.4375 20.573C18.1875 19.8959 18.625 19.0522 18.7083 18.1563C18.8125 16.8647 18.1979 15.6251 16.9687 14.6355C16.2708 14.0834 15.4583 13.6459 14.5729 13.323C16.875 12.6563 19.7708 13.1043 21.552 14.5418C22.5104 15.3126 23 16.2813 22.9062 17.2813Z" fill="white"/>
</svg>
